G04 ================== begin FILE IDENTIFICATION RECORD ==================*
G04 Layout Name:  DAVID_LUCA_2023_PACT_N8_rev6.brd*
G04 Film Name:    FAB*
G04 File Format:  Gerber RS274X*
G04 File Origin:  Cadence Allegro 17.2-S025*
G04 Origin Date:  Sat Jan 20 23:32:02 2024*
G04 *
G04 Layer:  BOARD GEOMETRY/DESIGN_OUTLINE*
G04 Layer:  MANUFACTURING/NCLEGEND-1-2*
G04 Layer:  MANUFACTURING/NCDRILL_LEGEND*
G04 Layer:  MANUFACTURING/NCDRILL_FIGURE*
G04 Layer:  DRAWING FORMAT/DRAWING_ORIGIN*
G04 Layer:  BOARD GEOMETRY/DIMENSION*
G04 Layer:  BOARD GEOMETRY/CUTOUT*
G04 *
G04 Offset:    (0.00 0.00)*
G04 Mirror:    No*
G04 Mode:      Positive*
G04 Rotation:  0*
G04 FullContactRelief:  No*
G04 UndefLineWidth:     10.00*
G04 ================== end FILE IDENTIFICATION RECORD ====================*
%FSLAX25Y25*MOIN*%
%IR0*IPPOS*OFA0.00000B0.00000*MIA0B0*SFA1.00000B1.00000*%
%AMMACRO11*
1,1,.01,.025,0.0*
20,1,.01,.025,0.0,-.025,0.0,0.0*
1,1,.01,-.025,0.0*
1,1,.01,0.0,.025*
20,1,.01,0.0,.025,0.0,-.025,0.0*
1,1,.01,0.0,-.025*
%
%ADD11MACRO11*%
%AMMACRO10*
1,1,.01,.025,0.0*
20,1,.01,.025,0.0,.02462,-.004341,0.0*
1,1,.01,.02462,-.004341*
20,1,.01,.02462,-.004341,.023492,-.008551,0.0*
1,1,.01,.023492,-.008551*
20,1,.01,.023492,-.008551,.021651,-.0125,0.0*
1,1,.01,.021651,-.0125*
20,1,.01,.021651,-.0125,.019151,-.01607,0.0*
1,1,.01,.019151,-.01607*
20,1,.01,.019151,-.01607,.01607,-.019151,0.0*
1,1,.01,.01607,-.019151*
20,1,.01,.01607,-.019151,.0125,-.021651,0.0*
1,1,.01,.0125,-.021651*
20,1,.01,.0125,-.021651,.008551,-.023492,0.0*
1,1,.01,.008551,-.023492*
20,1,.01,.008551,-.023492,.004341,-.02462,0.0*
1,1,.01,.004341,-.02462*
20,1,.01,.004341,-.02462,0.0,-.025,0.0*
1,1,.01,0.0,-.025*
20,1,.01,0.0,-.025,-.004341,-.02462,0.0*
1,1,.01,-.004341,-.02462*
20,1,.01,-.004341,-.02462,-.008551,-.023492,0.0*
1,1,.01,-.008551,-.023492*
20,1,.01,-.008551,-.023492,-.0125,-.021651,0.0*
1,1,.01,-.0125,-.021651*
20,1,.01,-.0125,-.021651,-.01607,-.019151,0.0*
1,1,.01,-.01607,-.019151*
20,1,.01,-.01607,-.019151,-.019151,-.01607,0.0*
1,1,.01,-.019151,-.01607*
20,1,.01,-.019151,-.01607,-.021651,-.0125,0.0*
1,1,.01,-.021651,-.0125*
20,1,.01,-.021651,-.0125,-.023492,-.008551,0.0*
1,1,.01,-.023492,-.008551*
20,1,.01,-.023492,-.008551,-.02462,-.004341,0.0*
1,1,.01,-.02462,-.004341*
20,1,.01,-.02462,-.004341,-.025,0.0,0.0*
1,1,.01,-.025,0.0*
20,1,.01,-.025,0.0,-.02462,.004341,0.0*
1,1,.01,-.02462,.004341*
20,1,.01,-.02462,.004341,-.023492,.008551,0.0*
1,1,.01,-.023492,.008551*
20,1,.01,-.023492,.008551,-.021651,.0125,0.0*
1,1,.01,-.021651,.0125*
20,1,.01,-.021651,.0125,-.019151,.01607,0.0*
1,1,.01,-.019151,.01607*
20,1,.01,-.019151,.01607,-.01607,.019151,0.0*
1,1,.01,-.01607,.019151*
20,1,.01,-.01607,.019151,-.0125,.021651,0.0*
1,1,.01,-.0125,.021651*
20,1,.01,-.0125,.021651,-.008551,.023492,0.0*
1,1,.01,-.008551,.023492*
20,1,.01,-.008551,.023492,-.004341,.02462,0.0*
1,1,.01,-.004341,.02462*
20,1,.01,-.004341,.02462,0.0,.025,0.0*
1,1,.01,0.0,.025*
20,1,.01,0.0,.025,.004341,.02462,0.0*
1,1,.01,.004341,.02462*
20,1,.01,.004341,.02462,.008551,.023492,0.0*
1,1,.01,.008551,.023492*
20,1,.01,.008551,.023492,.0125,.021651,0.0*
1,1,.01,.0125,.021651*
20,1,.01,.0125,.021651,.01607,.019151,0.0*
1,1,.01,.01607,.019151*
20,1,.01,.01607,.019151,.019151,.01607,0.0*
1,1,.01,.019151,.01607*
20,1,.01,.019151,.01607,.021651,.0125,0.0*
1,1,.01,.021651,.0125*
20,1,.01,.021651,.0125,.023492,.008551,0.0*
1,1,.01,.023492,.008551*
20,1,.01,.023492,.008551,.02462,.004341,0.0*
1,1,.01,.02462,.004341*
20,1,.01,.02462,.004341,.025,0.0,0.0*
1,1,.01,.025,0.0*
1,1,.01,.0125,0.0*
20,1,.01,.0125,0.0,-.0125,0.0,0.0*
1,1,.01,-.0125,0.0*
1,1,.01,0.0,.0125*
20,1,.01,0.0,.0125,0.0,-.0125,0.0*
1,1,.01,0.0,-.0125*
%
%ADD10MACRO10*%
%ADD12C,.01*%
%ADD13C,.006*%
G75*
%LPD*%
G75*
G36*
G01X242600Y123898D02*
Y119559D01*
X245100D01*
Y-70162D01*
X242600D01*
Y-74501D01*
X257600D01*
Y-70162D01*
X255100D01*
Y119559D01*
X257600D01*
Y123898D01*
X242600D01*
G37*
G36*
G01X222600Y-74500D02*
Y-70161D01*
X282600D01*
Y-74500D01*
X222600D01*
G37*
G36*
G01Y119559D02*
Y123898D01*
X282600D01*
Y119559D01*
X222600D01*
G37*
G54D10*
X-125050Y207500D03*
X30000Y37500D03*
Y57500D03*
X23957Y110000D03*
X55000Y97500D03*
X47500Y87500D03*
X32500D03*
X97500Y42500D03*
X117500D03*
X92500Y85000D03*
X110000Y120000D03*
X100000D03*
X115000Y112500D03*
X130000Y110000D03*
G54D11*
X0Y0D03*
G54D12*
G01X-170000Y195000D02*
Y295000D01*
X326000D01*
Y195000D01*
X-170000D01*
G01X-158995Y226250D02*
Y238750D01*
X-153105D01*
G01X-155275Y232708D02*
X-158995D01*
G01X-145510Y238750D02*
X-141790D01*
G01X-143650D02*
Y226250D01*
G01X-145510D02*
X-141790D01*
G01X-130320Y232500D02*
X-127220D01*
Y228750D01*
X-128150Y227500D01*
X-129235Y226667D01*
X-130785Y226250D01*
X-132335Y226667D01*
X-133420Y227500D01*
X-134350Y228750D01*
X-134970Y230208D01*
X-135280Y231875D01*
Y233333D01*
X-134970Y234583D01*
X-134350Y236042D01*
X-133420Y237292D01*
X-132490Y238125D01*
X-131250Y238750D01*
X-130165D01*
X-128925Y238333D01*
X-127995Y237500D01*
G01X-122260Y238750D02*
Y229792D01*
X-121640Y227916D01*
X-120400Y226667D01*
X-118850Y226250D01*
X-117300Y226667D01*
X-116060Y227916D01*
X-115440Y229792D01*
Y238750D01*
G01X-109550Y226250D02*
Y238750D01*
X-105675D01*
X-104435Y238125D01*
X-103660Y237292D01*
X-103350Y235625D01*
X-103660Y233958D01*
X-104590Y232917D01*
X-105675Y232292D01*
X-109550D01*
G01X-105675D02*
X-103350Y226250D01*
G01X-90950D02*
X-97150D01*
Y238750D01*
X-90950D01*
G01X-93430Y232708D02*
X-97150D01*
G01X-170000Y220000D02*
X326000D01*
G01X-170000Y245000D02*
X326000D01*
G01X-170000Y270000D02*
X326000D01*
G01X-80100Y245000D02*
Y195000D01*
G01X-80410Y276250D02*
Y288750D01*
X-77310D01*
X-76070Y288125D01*
X-75140Y287292D01*
X-74365Y286042D01*
X-73745Y284583D01*
X-73590Y282500D01*
X-73745Y280417D01*
X-74365Y278958D01*
X-75140Y277708D01*
X-76070Y276875D01*
X-77310Y276250D01*
X-80410D01*
G01X-67700D02*
Y288750D01*
X-63825D01*
X-62585Y288125D01*
X-61810Y287292D01*
X-61500Y285625D01*
X-61810Y283958D01*
X-62740Y282917D01*
X-63825Y282292D01*
X-67700D01*
G01X-63825D02*
X-61500Y276250D01*
G01X-54060Y288750D02*
X-50340D01*
G01X-52200D02*
Y276250D01*
G01X-54060D02*
X-50340D01*
G01X-42900Y288750D02*
Y276250D01*
X-36700D01*
G01X-30500Y288750D02*
Y276250D01*
X-24300D01*
G01X810Y287708D02*
X-120Y288333D01*
X-1205Y288750D01*
X-2445D01*
X-3840Y288125D01*
X-4925Y287083D01*
X-5700Y285833D01*
X-6320Y283750D01*
X-6475Y281875D01*
X-6165Y280000D01*
X-5700Y278750D01*
X-4770Y277500D01*
X-3685Y276667D01*
X-2600Y276250D01*
X-1515D01*
X-430Y276667D01*
X500Y277291D01*
X1275Y278125D01*
G01X6545Y276250D02*
Y288750D01*
G01X13055D02*
Y276250D01*
G01Y282500D02*
X6545D01*
G01X18325Y276250D02*
X22200Y288750D01*
X26075Y276250D01*
G01X24680Y280625D02*
X19720D01*
G01X31500Y276250D02*
Y288750D01*
X35375D01*
X36615Y288125D01*
X37390Y287292D01*
X37700Y285625D01*
X37390Y283958D01*
X36460Y282917D01*
X35375Y282292D01*
X31500D01*
G01X35375D02*
X37700Y276250D01*
G01X47000Y288750D02*
Y276250D01*
G01X43435Y288750D02*
X50565D01*
G01X59400Y275833D02*
X59090Y276042D01*
Y276458D01*
X59400Y276667D01*
X59710Y276458D01*
Y276042D01*
X59400Y275833D01*
G01Y281458D02*
X59090Y281667D01*
Y282083D01*
X59400Y282292D01*
X59710Y282083D01*
Y281667D01*
X59400Y281458D01*
G01X84200Y288750D02*
Y276250D01*
G01X80635Y288750D02*
X87765D01*
G01X96600Y276250D02*
X95360Y276458D01*
X94275Y277291D01*
X93345Y278542D01*
X92725Y280000D01*
X92415Y281667D01*
Y283333D01*
X92725Y285000D01*
X93345Y286458D01*
X94275Y287708D01*
X95360Y288542D01*
X96600Y288750D01*
X97840Y288542D01*
X98925Y287708D01*
X99855Y286458D01*
X100475Y285000D01*
X100785Y283333D01*
Y281667D01*
X100475Y280000D01*
X99855Y278542D01*
X98925Y277291D01*
X97840Y276458D01*
X96600Y276250D01*
G01X105900D02*
Y288750D01*
X109620D01*
X110860Y288125D01*
X111790Y286667D01*
X112100Y285000D01*
X111790Y283333D01*
X111015Y282083D01*
X109620Y281458D01*
X105900D01*
G01X133800Y288750D02*
Y276250D01*
G01X131630Y284583D02*
X135970D01*
G01X146200Y276250D02*
X145270Y276458D01*
X144340Y277291D01*
X143720Y278750D01*
X143410Y280417D01*
X143720Y282083D01*
X144340Y283542D01*
X145270Y284375D01*
X146200Y284583D01*
X147130Y284375D01*
X148060Y283542D01*
X148680Y282083D01*
X148835Y280417D01*
X148680Y278750D01*
X148060Y277291D01*
X147130Y276458D01*
X146200Y276250D01*
G01X172240Y282917D02*
X172860Y283542D01*
X173325Y284583D01*
X173635Y286042D01*
X173325Y287292D01*
X172705Y288125D01*
X171620Y288750D01*
X167435D01*
Y276250D01*
X172550D01*
X173635Y277083D01*
X174255Y278333D01*
X174565Y279792D01*
X174255Y281250D01*
X173325Y282500D01*
X172240Y282917D01*
X167435D01*
G01X183400Y276250D02*
X182160Y276458D01*
X181075Y277291D01*
X180145Y278542D01*
X179525Y280000D01*
X179215Y281667D01*
Y283333D01*
X179525Y285000D01*
X180145Y286458D01*
X181075Y287708D01*
X182160Y288542D01*
X183400Y288750D01*
X184640Y288542D01*
X185725Y287708D01*
X186655Y286458D01*
X187275Y285000D01*
X187585Y283333D01*
Y281667D01*
X187275Y280000D01*
X186655Y278542D01*
X185725Y277291D01*
X184640Y276458D01*
X183400Y276250D01*
G01X195800Y288750D02*
Y276250D01*
G01X192235Y288750D02*
X199365D01*
G01X208200D02*
Y276250D01*
G01X204635Y288750D02*
X211765D01*
G01X220600Y276250D02*
X219360Y276458D01*
X218275Y277291D01*
X217345Y278542D01*
X216725Y280000D01*
X216415Y281667D01*
Y283333D01*
X216725Y285000D01*
X217345Y286458D01*
X218275Y287708D01*
X219360Y288542D01*
X220600Y288750D01*
X221840Y288542D01*
X222925Y287708D01*
X223855Y286458D01*
X224475Y285000D01*
X224785Y283333D01*
Y281667D01*
X224475Y280000D01*
X223855Y278542D01*
X222925Y277291D01*
X221840Y276458D01*
X220600Y276250D01*
G01X228970D02*
Y288750D01*
X233000Y278333D01*
X237030Y288750D01*
Y276250D01*
G01X-56695Y226250D02*
Y238750D01*
X-50805D01*
G01X-52975Y232708D02*
X-56695D01*
G01X-43210Y238750D02*
X-39490D01*
G01X-41350D02*
Y226250D01*
G01X-43210D02*
X-39490D01*
G01X-32515D02*
Y238750D01*
X-25385Y226250D01*
Y238750D01*
G01X-18410D02*
X-14690D01*
G01X-16550D02*
Y226250D01*
G01X-18410D02*
X-14690D01*
G01X-7405Y227916D02*
X-6165Y226875D01*
X-4770Y226250D01*
X-3530D01*
X-2290Y226875D01*
X-1360Y227916D01*
X-895Y229375D01*
X-1205Y230833D01*
X-1980Y232083D01*
X-3375Y232917D01*
X-5235Y233333D01*
X-6320Y234167D01*
X-6785Y235625D01*
X-6475Y237083D01*
X-5700Y238125D01*
X-4615Y238750D01*
X-3530D01*
X-2445Y238333D01*
X-1515Y237292D01*
G01X4995Y226250D02*
Y238750D01*
G01X11505D02*
Y226250D01*
G01Y232500D02*
X4995D01*
G01X23750Y226250D02*
X17550D01*
Y238750D01*
X23750D01*
G01X21270Y232708D02*
X17550D01*
G01X29640Y226250D02*
Y238750D01*
X32740D01*
X33980Y238125D01*
X34910Y237292D01*
X35685Y236042D01*
X36305Y234583D01*
X36460Y232500D01*
X36305Y230417D01*
X35685Y228958D01*
X34910Y227708D01*
X33980Y226875D01*
X32740Y226250D01*
X29640D01*
G01X40800Y222083D02*
X50100D01*
G01X54595Y227916D02*
X55835Y226875D01*
X57230Y226250D01*
X58470D01*
X59710Y226875D01*
X60640Y227916D01*
X61105Y229375D01*
X60795Y230833D01*
X60020Y232083D01*
X58625Y232917D01*
X56765Y233333D01*
X55680Y234167D01*
X55215Y235625D01*
X55525Y237083D01*
X56300Y238125D01*
X57385Y238750D01*
X58470D01*
X59555Y238333D01*
X60485Y237292D01*
G01X68390Y238750D02*
X72110D01*
G01X70250D02*
Y226250D01*
G01X68390D02*
X72110D01*
G01X79705Y238750D02*
X85595D01*
X79705Y226250D01*
X85595D01*
G01X98150D02*
X91950D01*
Y238750D01*
X98150D01*
G01X95670Y232708D02*
X91950D01*
G01X-49875Y251250D02*
X-46000Y263750D01*
X-42125Y251250D01*
G01X-43520Y255625D02*
X-48480D01*
G01X-36700Y263750D02*
Y251250D01*
X-30500D01*
G01X-24300Y263750D02*
Y251250D01*
X-18100D01*
G01X190Y263750D02*
Y254792D01*
X810Y252916D01*
X2050Y251667D01*
X3600Y251250D01*
X5150Y251667D01*
X6390Y252916D01*
X7010Y254792D01*
Y263750D01*
G01X12435Y251250D02*
Y263750D01*
X19565Y251250D01*
Y263750D01*
G01X26540D02*
X30260D01*
G01X28400D02*
Y251250D01*
G01X26540D02*
X30260D01*
G01X40800Y263750D02*
Y251250D01*
G01X37235Y263750D02*
X44365D01*
G01X49945Y252916D02*
X51185Y251875D01*
X52580Y251250D01*
X53820D01*
X55060Y251875D01*
X55990Y252916D01*
X56455Y254375D01*
X56145Y255833D01*
X55370Y257083D01*
X53975Y257917D01*
X52115Y258333D01*
X51030Y259167D01*
X50565Y260625D01*
X50875Y262083D01*
X51650Y263125D01*
X52735Y263750D01*
X53820D01*
X54905Y263333D01*
X55835Y262292D01*
G01X74125Y251250D02*
X78000Y263750D01*
X81875Y251250D01*
G01X80480Y255625D02*
X75520D01*
G01X87300Y251250D02*
Y263750D01*
X91175D01*
X92415Y263125D01*
X93190Y262292D01*
X93500Y260625D01*
X93190Y258958D01*
X92260Y257917D01*
X91175Y257292D01*
X87300D01*
G01X91175D02*
X93500Y251250D01*
G01X105900D02*
X99700D01*
Y263750D01*
X105900D01*
G01X103420Y257708D02*
X99700D01*
G01X125740Y263750D02*
X129460D01*
G01X127600D02*
Y251250D01*
G01X125740D02*
X129460D01*
G01X136435D02*
Y263750D01*
X143565Y251250D01*
Y263750D01*
G01X160770Y251250D02*
Y263750D01*
X164800Y253333D01*
X168830Y263750D01*
Y251250D01*
G01X175340Y263750D02*
X179060D01*
G01X177200D02*
Y251250D01*
G01X175340D02*
X179060D01*
G01X186500Y263750D02*
Y251250D01*
X192700D01*
G01X198745Y252916D02*
X199985Y251875D01*
X201380Y251250D01*
X202620D01*
X203860Y251875D01*
X204790Y252916D01*
X205255Y254375D01*
X204945Y255833D01*
X204170Y257083D01*
X202775Y257917D01*
X200915Y258333D01*
X199830Y259167D01*
X199365Y260625D01*
X199675Y262083D01*
X200450Y263125D01*
X201535Y263750D01*
X202620D01*
X203705Y263333D01*
X204635Y262292D01*
G01X2050Y201250D02*
Y213750D01*
X190Y211250D01*
G01Y201250D02*
X3910D01*
G01X11505Y206458D02*
X12590Y207917D01*
X13520Y208750D01*
X14760Y209167D01*
X15845Y208750D01*
X16620Y207917D01*
X17240Y206667D01*
X17395Y205208D01*
X17240Y203958D01*
X16620Y202708D01*
X15690Y201667D01*
X14605Y201250D01*
X13365Y201667D01*
X12280Y202916D01*
X11660Y204792D01*
X11505Y206875D01*
X11815Y209583D01*
X12280Y211042D01*
X13055Y212500D01*
X14140Y213542D01*
X15225Y213750D01*
X16310Y213333D01*
X17085Y212292D01*
G01X26850Y200833D02*
X26540Y201042D01*
Y201458D01*
X26850Y201667D01*
X27160Y201458D01*
Y201042D01*
X26850Y200833D01*
G01X39250Y213750D02*
X38010Y213333D01*
X37080Y212292D01*
X36460Y211042D01*
X35995Y209375D01*
X35840Y207500D01*
X35995Y205625D01*
X36460Y203958D01*
X37080Y202708D01*
X38010Y201667D01*
X39250Y201250D01*
X40490Y201667D01*
X41420Y202708D01*
X42040Y203958D01*
X42505Y205625D01*
X42660Y207500D01*
X42505Y209375D01*
X42040Y211042D01*
X41420Y212292D01*
X40490Y213333D01*
X39250Y213750D01*
G01X0Y0D02*
Y160000D01*
X160000D01*
Y0D01*
X0D01*
G01X150850Y201250D02*
Y213750D01*
X154570D01*
X155810Y213125D01*
X156740Y211667D01*
X157050Y210000D01*
X156740Y208333D01*
X155965Y207083D01*
X154570Y206458D01*
X150850D01*
G01X163250Y213750D02*
Y201250D01*
X169450D01*
G01X174875D02*
X178750Y213750D01*
X182625Y201250D01*
G01X181230Y205625D02*
X176270D01*
G01X191150Y213750D02*
Y201250D01*
G01X187585Y213750D02*
X194715D01*
G01X206650Y201250D02*
X200450D01*
Y213750D01*
X206650D01*
G01X204170Y207708D02*
X200450D01*
G01X212540Y201250D02*
Y213750D01*
X215640D01*
X216880Y213125D01*
X217810Y212292D01*
X218585Y211042D01*
X219205Y209583D01*
X219360Y207500D01*
X219205Y205417D01*
X218585Y203958D01*
X217810Y202708D01*
X216880Y201875D01*
X215640Y201250D01*
X212540D01*
G01X121400Y245000D02*
Y195000D01*
G01X150850Y226250D02*
Y238750D01*
X154570D01*
X155810Y238125D01*
X156740Y236667D01*
X157050Y235000D01*
X156740Y233333D01*
X155965Y232083D01*
X154570Y231458D01*
X150850D01*
G01X163250Y238750D02*
Y226250D01*
X169450D01*
G01X174875D02*
X178750Y238750D01*
X182625Y226250D01*
G01X181230Y230625D02*
X176270D01*
G01X191150Y238750D02*
Y226250D01*
G01X187585Y238750D02*
X194715D01*
G01X206650Y226250D02*
X200450D01*
Y238750D01*
X206650D01*
G01X204170Y232708D02*
X200450D01*
G01X212540Y226250D02*
Y238750D01*
X215640D01*
X216880Y238125D01*
X217810Y237292D01*
X218585Y236042D01*
X219205Y234583D01*
X219360Y232500D01*
X219205Y230417D01*
X218585Y228958D01*
X217810Y227708D01*
X216880Y226875D01*
X215640Y226250D01*
X212540D01*
G01X222600Y-70161D02*
Y119559D01*
X282600D01*
Y-70161D01*
X222600D01*
G01X248500Y245000D02*
Y195000D01*
G01X281050Y201250D02*
Y213750D01*
X279190Y211250D01*
G01Y201250D02*
X282910D01*
G01X290040Y203750D02*
X290970Y202291D01*
X292210Y201458D01*
X293605Y201250D01*
X294845Y201458D01*
X296085Y202500D01*
X296860Y203750D01*
X297015Y205000D01*
X296705Y206458D01*
X295620Y207500D01*
X294535Y207917D01*
X293140D01*
G01X294535D02*
X295465Y208542D01*
X296240Y209583D01*
X296550Y210833D01*
X296240Y212083D01*
X295465Y213125D01*
X294070Y213750D01*
X292675Y213542D01*
X291280Y212708D01*
G01X274850Y226250D02*
X273610Y226458D01*
X272525Y227291D01*
X271595Y228542D01*
X270975Y230000D01*
X270665Y231667D01*
Y233333D01*
X270975Y235000D01*
X271595Y236458D01*
X272525Y237708D01*
X273610Y238542D01*
X274850Y238750D01*
X276090Y238542D01*
X277175Y237708D01*
X278105Y236458D01*
X278725Y235000D01*
X279035Y233333D01*
Y231667D01*
X278725Y230000D01*
X278105Y228542D01*
X277175Y227291D01*
X276090Y226458D01*
X274850Y226250D01*
G01X276090Y229583D02*
X277950Y226250D01*
G01X287250Y238750D02*
Y226250D01*
G01X283685Y238750D02*
X290815D01*
G01X299650Y226250D02*
Y231875D01*
X296550Y238750D01*
G01X302750D02*
X299650Y231875D01*
G54D13*
G01X219367Y-85800D02*
Y-82800D01*
X220033D01*
X220300Y-82950D01*
X220500Y-83150D01*
X220667Y-83450D01*
X220800Y-83800D01*
X220833Y-84300D01*
X220800Y-84800D01*
X220667Y-85150D01*
X220500Y-85450D01*
X220300Y-85650D01*
X220033Y-85800D01*
X219367D01*
G01X223367D02*
X222033D01*
Y-82800D01*
X223367D01*
G01X222833Y-84250D02*
X222033D01*
G01X224600Y-85400D02*
X224867Y-85650D01*
X225167Y-85800D01*
X225433D01*
X225700Y-85650D01*
X225900Y-85400D01*
X226000Y-85050D01*
X225933Y-84700D01*
X225767Y-84400D01*
X225467Y-84200D01*
X225067Y-84100D01*
X224833Y-83900D01*
X224733Y-83550D01*
X224800Y-83200D01*
X224967Y-82950D01*
X225200Y-82800D01*
X225433D01*
X225667Y-82900D01*
X225867Y-83150D01*
G01X227500Y-82800D02*
X228300D01*
G01X227900D02*
Y-85800D01*
G01X227500D02*
X228300D01*
G01X230700Y-84300D02*
X231367D01*
Y-85200D01*
X231167Y-85500D01*
X230933Y-85700D01*
X230600Y-85800D01*
X230267Y-85700D01*
X230033Y-85500D01*
X229833Y-85200D01*
X229700Y-84850D01*
X229633Y-84450D01*
Y-84100D01*
X229700Y-83800D01*
X229833Y-83450D01*
X230033Y-83150D01*
X230233Y-82950D01*
X230500Y-82800D01*
X230733D01*
X231000Y-82900D01*
X231200Y-83100D01*
G01X232333Y-85800D02*
Y-82800D01*
X233867Y-85800D01*
Y-82800D01*
G01X239033Y-83050D02*
X238833Y-82900D01*
X238600Y-82800D01*
X238333D01*
X238033Y-82950D01*
X237800Y-83200D01*
X237633Y-83500D01*
X237500Y-84000D01*
X237467Y-84450D01*
X237533Y-84900D01*
X237633Y-85200D01*
X237833Y-85500D01*
X238067Y-85700D01*
X238300Y-85800D01*
X238533D01*
X238767Y-85700D01*
X238967Y-85550D01*
X239133Y-85350D01*
G01X240233Y-85800D02*
Y-82800D01*
X241067D01*
X241333Y-82950D01*
X241500Y-83150D01*
X241567Y-83550D01*
X241500Y-83950D01*
X241300Y-84200D01*
X241067Y-84350D01*
X240233D01*
G01X241067D02*
X241567Y-85800D01*
G01X243500D02*
X243233Y-85750D01*
X243000Y-85550D01*
X242800Y-85250D01*
X242667Y-84900D01*
X242600Y-84500D01*
Y-84100D01*
X242667Y-83700D01*
X242800Y-83350D01*
X243000Y-83050D01*
X243233Y-82850D01*
X243500Y-82800D01*
X243767Y-82850D01*
X244000Y-83050D01*
X244200Y-83350D01*
X244333Y-83700D01*
X244400Y-84100D01*
Y-84500D01*
X244333Y-84900D01*
X244200Y-85250D01*
X244000Y-85550D01*
X243767Y-85750D01*
X243500Y-85800D01*
G01X245400Y-85400D02*
X245667Y-85650D01*
X245967Y-85800D01*
X246233D01*
X246500Y-85650D01*
X246700Y-85400D01*
X246800Y-85050D01*
X246733Y-84700D01*
X246567Y-84400D01*
X246267Y-84200D01*
X245867Y-84100D01*
X245633Y-83900D01*
X245533Y-83550D01*
X245600Y-83200D01*
X245767Y-82950D01*
X246000Y-82800D01*
X246233D01*
X246467Y-82900D01*
X246667Y-83150D01*
G01X248000Y-85400D02*
X248267Y-85650D01*
X248567Y-85800D01*
X248833D01*
X249100Y-85650D01*
X249300Y-85400D01*
X249400Y-85050D01*
X249333Y-84700D01*
X249167Y-84400D01*
X248867Y-84200D01*
X248467Y-84100D01*
X248233Y-83900D01*
X248133Y-83550D01*
X248200Y-83200D01*
X248367Y-82950D01*
X248600Y-82800D01*
X248833D01*
X249067Y-82900D01*
X249267Y-83150D01*
G01X253200Y-85400D02*
X253467Y-85650D01*
X253767Y-85800D01*
X254033D01*
X254300Y-85650D01*
X254500Y-85400D01*
X254600Y-85050D01*
X254533Y-84700D01*
X254367Y-84400D01*
X254067Y-84200D01*
X253667Y-84100D01*
X253433Y-83900D01*
X253333Y-83550D01*
X253400Y-83200D01*
X253567Y-82950D01*
X253800Y-82800D01*
X254033D01*
X254267Y-82900D01*
X254467Y-83150D01*
G01X257167Y-85800D02*
X255833D01*
Y-82800D01*
X257167D01*
G01X256633Y-84250D02*
X255833D01*
G01X259833Y-83050D02*
X259633Y-82900D01*
X259400Y-82800D01*
X259133D01*
X258833Y-82950D01*
X258600Y-83200D01*
X258433Y-83500D01*
X258300Y-84000D01*
X258267Y-84450D01*
X258333Y-84900D01*
X258433Y-85200D01*
X258633Y-85500D01*
X258867Y-85700D01*
X259100Y-85800D01*
X259333D01*
X259567Y-85700D01*
X259767Y-85550D01*
X259933Y-85350D01*
G01X261700Y-82800D02*
Y-85800D01*
G01X260933Y-82800D02*
X262467D01*
G01X263900D02*
X264700D01*
G01X264300D02*
Y-85800D01*
G01X263900D02*
X264700D01*
G01X266900D02*
X266633Y-85750D01*
X266400Y-85550D01*
X266200Y-85250D01*
X266067Y-84900D01*
X266000Y-84500D01*
Y-84100D01*
X266067Y-83700D01*
X266200Y-83350D01*
X266400Y-83050D01*
X266633Y-82850D01*
X266900Y-82800D01*
X267167Y-82850D01*
X267400Y-83050D01*
X267600Y-83350D01*
X267733Y-83700D01*
X267800Y-84100D01*
Y-84500D01*
X267733Y-84900D01*
X267600Y-85250D01*
X267400Y-85550D01*
X267167Y-85750D01*
X266900Y-85800D01*
G01X268733D02*
Y-82800D01*
X270267Y-85800D01*
Y-82800D01*
G01X275433Y-83050D02*
X275233Y-82900D01*
X275000Y-82800D01*
X274733D01*
X274433Y-82950D01*
X274200Y-83200D01*
X274033Y-83500D01*
X273900Y-84000D01*
X273867Y-84450D01*
X273933Y-84900D01*
X274033Y-85200D01*
X274233Y-85500D01*
X274467Y-85700D01*
X274700Y-85800D01*
X274933D01*
X275167Y-85700D01*
X275367Y-85550D01*
X275533Y-85350D01*
G01X276600Y-85800D02*
Y-82800D01*
G01X278000D02*
Y-85800D01*
G01Y-84300D02*
X276600D01*
G01X279067Y-85800D02*
X279900Y-82800D01*
X280733Y-85800D01*
G01X280433Y-84750D02*
X279367D01*
G01X281833Y-85800D02*
Y-82800D01*
X282667D01*
X282933Y-82950D01*
X283100Y-83150D01*
X283167Y-83550D01*
X283100Y-83950D01*
X282900Y-84200D01*
X282667Y-84350D01*
X281833D01*
G01X282667D02*
X283167Y-85800D01*
G01X285100Y-82800D02*
Y-85800D01*
G01X284333Y-82800D02*
X285867D01*
G01X217800Y-86800D02*
X219800D01*
G01X220400D02*
X222400D01*
G01X223000D02*
X225000D01*
G01X225600D02*
X227600D01*
G01X228200D02*
X230200D01*
G01X230800D02*
X232800D01*
G01X233400D02*
X235400D01*
G01X236000D02*
X238000D01*
G01X238600D02*
X240600D01*
G01X241200D02*
X243200D01*
G01X243800D02*
X245800D01*
G01X246400D02*
X248400D01*
G01X249000D02*
X251000D01*
G01X251600D02*
X253600D01*
G01X254200D02*
X256200D01*
G01X256800D02*
X258800D01*
G01X259400D02*
X261400D01*
G01X262000D02*
X264000D01*
G01X264600D02*
X266600D01*
G01X267200D02*
X269200D01*
G01X269800D02*
X271800D01*
G01X272400D02*
X274400D01*
G01X275000D02*
X277000D01*
G01X277600D02*
X279600D01*
G01X280200D02*
X282200D01*
G01X282800D02*
X284800D01*
G01X285400D02*
X287400D01*
G01X225300Y-88200D02*
Y-91200D01*
G01X224533Y-88200D02*
X226067D01*
G01X227900Y-91200D02*
X227633Y-91150D01*
X227400Y-90950D01*
X227200Y-90650D01*
X227067Y-90300D01*
X227000Y-89900D01*
Y-89500D01*
X227067Y-89100D01*
X227200Y-88750D01*
X227400Y-88450D01*
X227633Y-88250D01*
X227900Y-88200D01*
X228167Y-88250D01*
X228400Y-88450D01*
X228600Y-88750D01*
X228733Y-89100D01*
X228800Y-89500D01*
Y-89900D01*
X228733Y-90300D01*
X228600Y-90650D01*
X228400Y-90950D01*
X228167Y-91150D01*
X227900Y-91200D01*
G01X230500Y-88200D02*
Y-91200D01*
G01X229733Y-88200D02*
X231267D01*
G01X232267Y-91200D02*
X233100Y-88200D01*
X233933Y-91200D01*
G01X233633Y-90150D02*
X232567D01*
G01X235033Y-88200D02*
Y-91200D01*
X236367D01*
G01X240900Y-88200D02*
Y-91200D01*
G01X240133Y-88200D02*
X241667D01*
G01X242800Y-91200D02*
Y-88200D01*
G01X244200D02*
Y-91200D01*
G01Y-89700D02*
X242800D01*
G01X245700Y-88200D02*
X246500D01*
G01X246100D02*
Y-91200D01*
G01X245700D02*
X246500D01*
G01X249433Y-88450D02*
X249233Y-88300D01*
X249000Y-88200D01*
X248733D01*
X248433Y-88350D01*
X248200Y-88600D01*
X248033Y-88900D01*
X247900Y-89400D01*
X247867Y-89850D01*
X247933Y-90300D01*
X248033Y-90600D01*
X248233Y-90900D01*
X248467Y-91100D01*
X248700Y-91200D01*
X248933D01*
X249167Y-91100D01*
X249367Y-90950D01*
X249533Y-90750D01*
G01X250567Y-91200D02*
Y-88200D01*
G01X251833D02*
X250567Y-90050D01*
G01X252033Y-91200D02*
X251133Y-89200D01*
G01X253133Y-91200D02*
Y-88200D01*
X254667Y-91200D01*
Y-88200D01*
G01X257167Y-91200D02*
X255833D01*
Y-88200D01*
X257167D01*
G01X256633Y-89650D02*
X255833D01*
G01X258400Y-90800D02*
X258667Y-91050D01*
X258967Y-91200D01*
X259233D01*
X259500Y-91050D01*
X259700Y-90800D01*
X259800Y-90450D01*
X259733Y-90100D01*
X259567Y-89800D01*
X259267Y-89600D01*
X258867Y-89500D01*
X258633Y-89300D01*
X258533Y-88950D01*
X258600Y-88600D01*
X258767Y-88350D01*
X259000Y-88200D01*
X259233D01*
X259467Y-88300D01*
X259667Y-88550D01*
G01X261000Y-90800D02*
X261267Y-91050D01*
X261567Y-91200D01*
X261833D01*
X262100Y-91050D01*
X262300Y-90800D01*
X262400Y-90450D01*
X262333Y-90100D01*
X262167Y-89800D01*
X261867Y-89600D01*
X261467Y-89500D01*
X261233Y-89300D01*
X261133Y-88950D01*
X261200Y-88600D01*
X261367Y-88350D01*
X261600Y-88200D01*
X261833D01*
X262067Y-88300D01*
X262267Y-88550D01*
G01X266267Y-89950D02*
X266500Y-89600D01*
X266700Y-89400D01*
X266967Y-89300D01*
X267200Y-89400D01*
X267367Y-89600D01*
X267500Y-89900D01*
X267533Y-90250D01*
X267500Y-90550D01*
X267367Y-90850D01*
X267167Y-91100D01*
X266933Y-91200D01*
X266667Y-91100D01*
X266433Y-90800D01*
X266300Y-90350D01*
X266267Y-89850D01*
X266333Y-89200D01*
X266433Y-88850D01*
X266600Y-88500D01*
X266833Y-88250D01*
X267067Y-88200D01*
X267300Y-88300D01*
X267467Y-88550D01*
G01X269900Y-91200D02*
Y-88200D01*
X268667Y-90350D01*
X270333D01*
G01X273833Y-91200D02*
Y-88200D01*
X274700Y-90700D01*
X275567Y-88200D01*
Y-91200D01*
G01X276900Y-88200D02*
X277700D01*
G01X277300D02*
Y-91200D01*
G01X276900D02*
X277700D01*
G01X279233Y-88200D02*
Y-91200D01*
X280567D01*
G01X250100Y127898D02*
X247100D01*
X247700Y127498D01*
G01X250100D02*
Y128298D01*
G01X249100Y130065D02*
Y130931D01*
G01X247600Y132465D02*
X247300Y132665D01*
X247150Y132898D01*
X247100Y133165D01*
X247200Y133498D01*
X247450Y133731D01*
X247750Y133798D01*
X248050Y133765D01*
X248300Y133631D01*
X248800Y132965D01*
X249150Y132665D01*
X249650Y132465D01*
X250100Y132398D01*
Y133798D01*
G01X285533Y-71161D02*
Y-74161D01*
X286867D01*
G01X288167Y-71661D02*
X288367Y-71361D01*
X288600Y-71211D01*
X288867Y-71161D01*
X289200Y-71261D01*
X289433Y-71511D01*
X289500Y-71811D01*
X289467Y-72111D01*
X289333Y-72361D01*
X288667Y-72861D01*
X288367Y-73211D01*
X288167Y-73711D01*
X288100Y-74161D01*
X289500D01*
G01X294267Y-72561D02*
X294400Y-72411D01*
X294500Y-72161D01*
X294567Y-71811D01*
X294500Y-71511D01*
X294367Y-71311D01*
X294133Y-71161D01*
X293233D01*
Y-74161D01*
X294333D01*
X294567Y-73961D01*
X294700Y-73661D01*
X294767Y-73311D01*
X294700Y-72961D01*
X294500Y-72661D01*
X294267Y-72561D01*
X293233D01*
G01X296600Y-74161D02*
X296333Y-74111D01*
X296100Y-73911D01*
X295900Y-73611D01*
X295767Y-73261D01*
X295700Y-72861D01*
Y-72461D01*
X295767Y-72061D01*
X295900Y-71711D01*
X296100Y-71411D01*
X296333Y-71211D01*
X296600Y-71161D01*
X296867Y-71211D01*
X297100Y-71411D01*
X297300Y-71711D01*
X297433Y-72061D01*
X297500Y-72461D01*
Y-72861D01*
X297433Y-73261D01*
X297300Y-73611D01*
X297100Y-73911D01*
X296867Y-74111D01*
X296600Y-74161D01*
G01X299200Y-71161D02*
Y-74161D01*
G01X298433Y-71161D02*
X299967D01*
G01X301800D02*
Y-74161D01*
G01X301033Y-71161D02*
X302567D01*
G01X304400Y-74161D02*
X304133Y-74111D01*
X303900Y-73911D01*
X303700Y-73611D01*
X303567Y-73261D01*
X303500Y-72861D01*
Y-72461D01*
X303567Y-72061D01*
X303700Y-71711D01*
X303900Y-71411D01*
X304133Y-71211D01*
X304400Y-71161D01*
X304667Y-71211D01*
X304900Y-71411D01*
X305100Y-71711D01*
X305233Y-72061D01*
X305300Y-72461D01*
Y-72861D01*
X305233Y-73261D01*
X305100Y-73611D01*
X304900Y-73911D01*
X304667Y-74111D01*
X304400Y-74161D01*
G01X306133D02*
Y-71161D01*
X307000Y-73661D01*
X307867Y-71161D01*
Y-74161D01*
G01X312933Y-71411D02*
X312733Y-71261D01*
X312500Y-71161D01*
X312233D01*
X311933Y-71311D01*
X311700Y-71561D01*
X311533Y-71861D01*
X311400Y-72361D01*
X311367Y-72811D01*
X311433Y-73261D01*
X311533Y-73561D01*
X311733Y-73861D01*
X311967Y-74061D01*
X312200Y-74161D01*
X312433D01*
X312667Y-74061D01*
X312867Y-73911D01*
X313033Y-73711D01*
G01X314800Y-74161D02*
X314533Y-74111D01*
X314300Y-73911D01*
X314100Y-73611D01*
X313967Y-73261D01*
X313900Y-72861D01*
Y-72461D01*
X313967Y-72061D01*
X314100Y-71711D01*
X314300Y-71411D01*
X314533Y-71211D01*
X314800Y-71161D01*
X315067Y-71211D01*
X315300Y-71411D01*
X315500Y-71711D01*
X315633Y-72061D01*
X315700Y-72461D01*
Y-72861D01*
X315633Y-73261D01*
X315500Y-73611D01*
X315300Y-73911D01*
X315067Y-74111D01*
X314800Y-74161D01*
G01X316633D02*
Y-71161D01*
X318167Y-74161D01*
Y-71161D01*
G01X319267Y-74161D02*
Y-71161D01*
X319933D01*
X320200Y-71311D01*
X320400Y-71511D01*
X320567Y-71811D01*
X320700Y-72161D01*
X320733Y-72661D01*
X320700Y-73161D01*
X320567Y-73511D01*
X320400Y-73811D01*
X320200Y-74011D01*
X319933Y-74161D01*
X319267D01*
G01X321867Y-71161D02*
Y-73311D01*
X322000Y-73761D01*
X322267Y-74061D01*
X322600Y-74161D01*
X322933Y-74061D01*
X323200Y-73761D01*
X323333Y-73311D01*
Y-71161D01*
G01X325933Y-71411D02*
X325733Y-71261D01*
X325500Y-71161D01*
X325233D01*
X324933Y-71311D01*
X324700Y-71561D01*
X324533Y-71861D01*
X324400Y-72361D01*
X324367Y-72811D01*
X324433Y-73261D01*
X324533Y-73561D01*
X324733Y-73861D01*
X324967Y-74061D01*
X325200Y-74161D01*
X325433D01*
X325667Y-74061D01*
X325867Y-73911D01*
X326033Y-73711D01*
G01X327800Y-71161D02*
Y-74161D01*
G01X327033Y-71161D02*
X328567D01*
G01X330400Y-74161D02*
X330133Y-74111D01*
X329900Y-73911D01*
X329700Y-73611D01*
X329567Y-73261D01*
X329500Y-72861D01*
Y-72461D01*
X329567Y-72061D01*
X329700Y-71711D01*
X329900Y-71411D01*
X330133Y-71211D01*
X330400Y-71161D01*
X330667Y-71211D01*
X330900Y-71411D01*
X331100Y-71711D01*
X331233Y-72061D01*
X331300Y-72461D01*
Y-72861D01*
X331233Y-73261D01*
X331100Y-73611D01*
X330900Y-73911D01*
X330667Y-74111D01*
X330400Y-74161D01*
G01X332333D02*
Y-71161D01*
X333167D01*
X333433Y-71311D01*
X333600Y-71511D01*
X333667Y-71911D01*
X333600Y-72311D01*
X333400Y-72561D01*
X333167Y-72711D01*
X332333D01*
G01X333167D02*
X333667Y-74161D01*
G01X290667Y-78600D02*
X292133Y-76400D01*
G01X291400Y-76000D02*
Y-79000D01*
G01X292133Y-78600D02*
X290667Y-76400D01*
G01X290400Y-77500D02*
X292400D01*
G01X298500Y-78100D02*
X298767Y-78350D01*
X299067Y-78500D01*
X299333D01*
X299600Y-78350D01*
X299800Y-78100D01*
X299900Y-77750D01*
X299833Y-77400D01*
X299667Y-77100D01*
X299367Y-76900D01*
X298967Y-76800D01*
X298733Y-76600D01*
X298633Y-76250D01*
X298700Y-75900D01*
X298867Y-75650D01*
X299100Y-75500D01*
X299333D01*
X299567Y-75600D01*
X299767Y-75850D01*
G01X301067Y-75500D02*
Y-77650D01*
X301200Y-78100D01*
X301467Y-78400D01*
X301800Y-78500D01*
X302133Y-78400D01*
X302400Y-78100D01*
X302533Y-77650D01*
Y-75500D01*
G01X303733Y-78500D02*
Y-75500D01*
X304567D01*
X304833Y-75650D01*
X305000Y-75850D01*
X305067Y-76250D01*
X305000Y-76650D01*
X304800Y-76900D01*
X304567Y-77050D01*
X303733D01*
G01X304567D02*
X305067Y-78500D01*
G01X306367D02*
Y-75500D01*
X307633D01*
G01X307167Y-76950D02*
X306367D01*
G01X308767Y-78500D02*
X309600Y-75500D01*
X310433Y-78500D01*
G01X310133Y-77450D02*
X309067D01*
G01X312933Y-75750D02*
X312733Y-75600D01*
X312500Y-75500D01*
X312233D01*
X311933Y-75650D01*
X311700Y-75900D01*
X311533Y-76200D01*
X311400Y-76700D01*
X311367Y-77150D01*
X311433Y-77600D01*
X311533Y-77900D01*
X311733Y-78200D01*
X311967Y-78400D01*
X312200Y-78500D01*
X312433D01*
X312667Y-78400D01*
X312867Y-78250D01*
X313033Y-78050D01*
G01X315467Y-78500D02*
X314133D01*
Y-75500D01*
X315467D01*
G01X314933Y-76950D02*
X314133D01*
G01X290667Y24599D02*
X292133Y26799D01*
G01X291400Y27199D02*
Y24199D01*
G01X292133Y24599D02*
X290667Y26799D01*
G01X290400Y25699D02*
X292400D01*
G01X298467Y24699D02*
Y27699D01*
X299133D01*
X299400Y27549D01*
X299600Y27349D01*
X299767Y27049D01*
X299900Y26699D01*
X299933Y26199D01*
X299900Y25699D01*
X299767Y25349D01*
X299600Y25049D01*
X299400Y24849D01*
X299133Y24699D01*
X298467D01*
G01X301400Y27699D02*
X302200D01*
G01X301800D02*
Y24699D01*
G01X301400D02*
X302200D01*
G01X305067D02*
X303733D01*
Y27699D01*
X305067D01*
G01X304533Y26249D02*
X303733D01*
G01X306333Y27699D02*
Y24699D01*
X307667D01*
G01X310267D02*
X308933D01*
Y27699D01*
X310267D01*
G01X309733Y26249D02*
X308933D01*
G01X312933Y27449D02*
X312733Y27599D01*
X312500Y27699D01*
X312233D01*
X311933Y27549D01*
X311700Y27299D01*
X311533Y26999D01*
X311400Y26499D01*
X311367Y26049D01*
X311433Y25599D01*
X311533Y25299D01*
X311733Y24999D01*
X311967Y24799D01*
X312200Y24699D01*
X312433D01*
X312667Y24799D01*
X312867Y24949D01*
X313033Y25149D01*
G01X314800Y27699D02*
Y24699D01*
G01X314033Y27699D02*
X315567D01*
G01X316733Y24699D02*
Y27699D01*
X317567D01*
X317833Y27549D01*
X318000Y27349D01*
X318067Y26949D01*
X318000Y26549D01*
X317800Y26299D01*
X317567Y26149D01*
X316733D01*
G01X317567D02*
X318067Y24699D01*
G01X319600Y27699D02*
X320400D01*
G01X320000D02*
Y24699D01*
G01X319600D02*
X320400D01*
G01X323333Y27449D02*
X323133Y27599D01*
X322900Y27699D01*
X322633D01*
X322333Y27549D01*
X322100Y27299D01*
X321933Y26999D01*
X321800Y26499D01*
X321767Y26049D01*
X321833Y25599D01*
X321933Y25299D01*
X322133Y24999D01*
X322367Y24799D01*
X322600Y24699D01*
X322833D01*
X323067Y24799D01*
X323267Y24949D01*
X323433Y25149D01*
G01X290667Y124798D02*
X292133Y126998D01*
G01X291400Y127398D02*
Y124398D01*
G01X292133Y124798D02*
X290667Y126998D01*
G01X290400Y125898D02*
X292400D01*
G01X298500Y125298D02*
X298767Y125048D01*
X299067Y124898D01*
X299333D01*
X299600Y125048D01*
X299800Y125298D01*
X299900Y125648D01*
X299833Y125998D01*
X299667Y126298D01*
X299367Y126498D01*
X298967Y126598D01*
X298733Y126798D01*
X298633Y127148D01*
X298700Y127498D01*
X298867Y127748D01*
X299100Y127898D01*
X299333D01*
X299567Y127798D01*
X299767Y127548D01*
G01X301067Y127898D02*
Y125748D01*
X301200Y125298D01*
X301467Y124998D01*
X301800Y124898D01*
X302133Y124998D01*
X302400Y125298D01*
X302533Y125748D01*
Y127898D01*
G01X303733Y124898D02*
Y127898D01*
X304567D01*
X304833Y127748D01*
X305000Y127548D01*
X305067Y127148D01*
X305000Y126748D01*
X304800Y126498D01*
X304567Y126348D01*
X303733D01*
G01X304567D02*
X305067Y124898D01*
G01X306367D02*
Y127898D01*
X307633D01*
G01X307167Y126448D02*
X306367D01*
G01X308767Y124898D02*
X309600Y127898D01*
X310433Y124898D01*
G01X310133Y125948D02*
X309067D01*
G01X312933Y127648D02*
X312733Y127798D01*
X312500Y127898D01*
X312233D01*
X311933Y127748D01*
X311700Y127498D01*
X311533Y127198D01*
X311400Y126698D01*
X311367Y126248D01*
X311433Y125798D01*
X311533Y125498D01*
X311733Y125198D01*
X311967Y124998D01*
X312200Y124898D01*
X312433D01*
X312667Y124998D01*
X312867Y125148D01*
X313033Y125348D01*
G01X315467Y124898D02*
X314133D01*
Y127898D01*
X315467D01*
G01X314933Y126448D02*
X314133D01*
G01X285533Y122898D02*
Y119898D01*
X286867D01*
G01X288800D02*
Y122898D01*
X288400Y122298D01*
G01Y119898D02*
X289200D01*
G01X294000Y122898D02*
Y119898D01*
G01X293233Y122898D02*
X294767D01*
G01X296600Y119898D02*
X296333Y119948D01*
X296100Y120148D01*
X295900Y120448D01*
X295767Y120798D01*
X295700Y121198D01*
Y121598D01*
X295767Y121998D01*
X295900Y122348D01*
X296100Y122648D01*
X296333Y122848D01*
X296600Y122898D01*
X296867Y122848D01*
X297100Y122648D01*
X297300Y122348D01*
X297433Y121998D01*
X297500Y121598D01*
Y121198D01*
X297433Y120798D01*
X297300Y120448D01*
X297100Y120148D01*
X296867Y119948D01*
X296600Y119898D01*
G01X298533D02*
Y122898D01*
X299333D01*
X299600Y122748D01*
X299800Y122398D01*
X299867Y121998D01*
X299800Y121598D01*
X299633Y121298D01*
X299333Y121148D01*
X298533D01*
G01X305133Y122648D02*
X304933Y122798D01*
X304700Y122898D01*
X304433D01*
X304133Y122748D01*
X303900Y122498D01*
X303733Y122198D01*
X303600Y121698D01*
X303567Y121248D01*
X303633Y120798D01*
X303733Y120498D01*
X303933Y120198D01*
X304167Y119998D01*
X304400Y119898D01*
X304633D01*
X304867Y119998D01*
X305067Y120148D01*
X305233Y120348D01*
G01X307000Y119898D02*
X306733Y119948D01*
X306500Y120148D01*
X306300Y120448D01*
X306167Y120798D01*
X306100Y121198D01*
Y121598D01*
X306167Y121998D01*
X306300Y122348D01*
X306500Y122648D01*
X306733Y122848D01*
X307000Y122898D01*
X307267Y122848D01*
X307500Y122648D01*
X307700Y122348D01*
X307833Y121998D01*
X307900Y121598D01*
Y121198D01*
X307833Y120798D01*
X307700Y120448D01*
X307500Y120148D01*
X307267Y119948D01*
X307000Y119898D01*
G01X308833D02*
Y122898D01*
X310367Y119898D01*
Y122898D01*
G01X311467Y119898D02*
Y122898D01*
X312133D01*
X312400Y122748D01*
X312600Y122548D01*
X312767Y122248D01*
X312900Y121898D01*
X312933Y121398D01*
X312900Y120898D01*
X312767Y120548D01*
X312600Y120248D01*
X312400Y120048D01*
X312133Y119898D01*
X311467D01*
G01X314067Y122898D02*
Y120748D01*
X314200Y120298D01*
X314467Y119998D01*
X314800Y119898D01*
X315133Y119998D01*
X315400Y120298D01*
X315533Y120748D01*
Y122898D01*
G01X318133Y122648D02*
X317933Y122798D01*
X317700Y122898D01*
X317433D01*
X317133Y122748D01*
X316900Y122498D01*
X316733Y122198D01*
X316600Y121698D01*
X316567Y121248D01*
X316633Y120798D01*
X316733Y120498D01*
X316933Y120198D01*
X317167Y119998D01*
X317400Y119898D01*
X317633D01*
X317867Y119998D01*
X318067Y120148D01*
X318233Y120348D01*
G01X320000Y122898D02*
Y119898D01*
G01X319233Y122898D02*
X320767D01*
G01X322600Y119898D02*
X322333Y119948D01*
X322100Y120148D01*
X321900Y120448D01*
X321767Y120798D01*
X321700Y121198D01*
Y121598D01*
X321767Y121998D01*
X321900Y122348D01*
X322100Y122648D01*
X322333Y122848D01*
X322600Y122898D01*
X322867Y122848D01*
X323100Y122648D01*
X323300Y122348D01*
X323433Y121998D01*
X323500Y121598D01*
Y121198D01*
X323433Y120798D01*
X323300Y120448D01*
X323100Y120148D01*
X322867Y119948D01*
X322600Y119898D01*
G01X324533D02*
Y122898D01*
X325367D01*
X325633Y122748D01*
X325800Y122548D01*
X325867Y122148D01*
X325800Y121748D01*
X325600Y121498D01*
X325367Y121348D01*
X324533D01*
G01X325367D02*
X325867Y119898D01*
M02*
