G04 ================== begin FILE IDENTIFICATION RECORD ==================*
G04 Layout Name:  DAVID_LUCA_2023_PACT_N8_rev6.brd*
G04 Film Name:    SPTOP*
G04 File Format:  Gerber RS274X*
G04 File Origin:  Cadence Allegro 17.2-S025*
G04 Origin Date:  Tue Jan 09 12:11:15 2024*
G04 *
G04 Layer:  PIN/PASTEMASK_TOP*
G04 Layer:  PACKAGE GEOMETRY/PASTEMASK_TOP*
G04 *
G04 Offset:    (0.00 0.00)*
G04 Mirror:    No*
G04 Mode:      Positive*
G04 Rotation:  0*
G04 FullContactRelief:  No*
G04 UndefLineWidth:     10.00*
G04 ================== end FILE IDENTIFICATION RECORD ====================*
%FSLAX25Y25*MOIN*%
%IR0*IPPOS*OFA0.00000B0.00000*MIA0B0*SFA1.00000B1.00000*%
%ADD11R,.1X.06*%
%ADD10C,.04*%
%ADD18R,.05X.05*%
%ADD14R,.13583X.06496*%
%ADD17R,.022X.02*%
%ADD20R,.07X.07*%
%ADD19R,.05X.074*%
%ADD21R,.072X.047*%
%ADD16R,.04528X.04724*%
%ADD12R,.04724X.04528*%
%ADD13R,.04528X.06496*%
%ADD15R,.06496X.04528*%
%LPD*%
G75*
G54D10*
X20000Y20000D03*
X140000Y140000D03*
G54D20*
X140374Y57500D03*
G54D11*
X19000Y43000D03*
Y30000D03*
X143000Y116500D03*
Y129500D03*
G54D12*
X26043Y52500D03*
X18957D03*
X26043Y65000D03*
X18957D03*
X31043Y105000D03*
X23957D03*
X48543Y36000D03*
X41457D03*
X78543Y15000D03*
X71457D03*
Y117500D03*
X78543D03*
G54D21*
X124626Y62028D03*
Y52972D03*
G54D13*
X31437Y77500D03*
X23563D03*
X31437Y92500D03*
X23563D03*
X53937Y52500D03*
X46063D03*
X55063Y71000D03*
X78937Y37500D03*
X71063D03*
X70063Y26000D03*
X77937D03*
X91063Y72500D03*
X62937Y71000D03*
X83937Y100000D03*
X76063D03*
X101063Y17500D03*
X108937D03*
X98937Y72500D03*
X98563Y85000D03*
X106437D03*
G54D14*
X17795Y137500D03*
X42205D03*
X65295D03*
X89705D03*
G54D15*
X40000Y18563D03*
X57500D03*
X40000Y26437D03*
X57500D03*
X62500Y43563D03*
Y51437D03*
X37500Y66437D03*
Y58563D03*
X105000Y28063D03*
Y35937D03*
Y61437D03*
Y53563D03*
X122000Y104063D03*
Y111937D03*
X125000Y91437D03*
Y83563D03*
X137500Y101437D03*
Y93563D03*
X150000D03*
Y101437D03*
G54D16*
X90000Y17457D03*
Y24543D03*
Y48543D03*
Y41457D03*
X115000Y61043D03*
Y53957D03*
Y78543D03*
Y71457D03*
X150000Y76457D03*
Y83543D03*
G54D17*
X69500Y53200D03*
Y60700D03*
X76500Y57000D03*
X61500Y88700D03*
Y96200D03*
X68500Y92500D03*
X114000Y131200D03*
Y138700D03*
X121000Y135000D03*
G54D18*
X147500Y18445D03*
Y27500D03*
G54D19*
X125256Y22972D03*
M02*
