G04 ================== begin FILE IDENTIFICATION RECORD ==================*
G04 Layout Name:  DAVID_LUCA_2023_PACT_N8_rev6.brd*
G04 Film Name:    TOP*
G04 File Format:  Gerber RS274X*
G04 File Origin:  Cadence Allegro 17.2-S025*
G04 Origin Date:  Tue Jan 09 11:12:15 2024*
G04 *
G04 Layer:  ETCH/TOP*
G04 Layer:  PIN/TOP*
G04 Layer:  VIA CLASS/TOP*
G04 *
G04 Offset:    (0.00 0.00)*
G04 Mirror:    No*
G04 Mode:      Positive*
G04 Rotation:  0*
G04 FullContactRelief:  No*
G04 UndefLineWidth:     0.00*
G04 ================== end FILE IDENTIFICATION RECORD ====================*
%FSLAX25Y25*MOIN*%
%IR0*IPPOS*OFA0.00000B0.00000*MIA0B0*SFA1.00000B1.00000*%
%ADD22R,.07874X.07874*%
%ADD11R,.1X.06*%
%ADD10C,.04*%
%ADD12C,.024*%
%ADD17C,.0315*%
%ADD20R,.05118X.05118*%
%ADD15R,.13583X.06496*%
%ADD19R,.02X.017*%
%ADD18R,.0374X.04331*%
%ADD13R,.04331X.0374*%
%ADD14R,.0374X.05709*%
%ADD16R,.05709X.0374*%
%ADD23R,.07874X.05118*%
%ADD21R,.05118X.07874*%
%ADD24C,.016*%
G75*
%LPD*%
G75*
G54D10*
X20000Y20000D03*
X140000Y140000D03*
G54D20*
X147500Y18445D03*
Y27500D03*
G54D11*
X19000Y43000D03*
Y30000D03*
X143000Y116500D03*
Y129500D03*
G54D21*
X125256Y22972D03*
G54D12*
X30000Y37500D03*
Y57500D03*
X23957Y110000D03*
X55000Y97500D03*
X47500Y87500D03*
X32500D03*
X97500Y42500D03*
X117500D03*
X92500Y85000D03*
X110000Y120000D03*
X100000D03*
X115000Y112500D03*
X130000Y110000D03*
G54D13*
X26043Y52500D03*
X18957D03*
X26043Y65000D03*
X18957D03*
X31043Y105000D03*
X23957D03*
X48543Y36000D03*
X41457D03*
X78543Y15000D03*
X71457D03*
Y117500D03*
X78543D03*
G54D22*
X140374Y57500D03*
G54D23*
X124626Y62028D03*
Y52972D03*
G54D14*
X31437Y77500D03*
X23563D03*
X31437Y92500D03*
X23563D03*
X53937Y52500D03*
X46063D03*
X55063Y71000D03*
X78937Y37500D03*
X71063D03*
X70063Y26000D03*
X77937D03*
X91063Y72500D03*
X62937Y71000D03*
X83937Y100000D03*
X76063D03*
X101063Y17500D03*
X108937D03*
X98937Y72500D03*
X98563Y85000D03*
X106437D03*
G54D24*
G01X18957Y52500D02*
Y48843D01*
X19000Y48800D01*
Y43000D01*
G01X30000Y37500D02*
X32500Y35000D01*
X36991D01*
X37991Y36000D01*
X41457D01*
G01X19000Y30000D02*
X8968D01*
X7368Y31600D01*
Y67368D01*
X7500Y67500D01*
G01X19000Y30000D02*
X30900D01*
X32500Y28400D01*
Y20000D01*
X33937Y18563D01*
X40000D01*
G01X37500Y66437D02*
X30946D01*
X29509Y65000D01*
X26043D01*
G01X30000Y57500D02*
X31063Y58563D01*
X37500D01*
G01X23563Y92500D02*
Y77500D01*
G01D02*
X10000D01*
X7500Y80000D01*
G01D02*
Y135900D01*
X9100Y137500D01*
X17795D01*
G01X7500Y80000D02*
Y67500D01*
G01D02*
X10000Y65000D01*
X18957D01*
G01X26043Y52500D02*
X46063D01*
G01X31043Y105000D02*
Y104091D01*
X31437Y103697D01*
Y92500D01*
G01X23957Y105000D02*
Y104330D01*
X23563Y103936D01*
Y92500D01*
G01X23957Y110000D02*
Y105000D01*
G01X31043D02*
Y110900D01*
X32643Y112500D01*
X50900D01*
X52500Y114100D01*
Y135900D01*
X50900Y137500D01*
X42205D01*
G01X40000Y18563D02*
X57500D01*
G01X41457Y36000D02*
Y31064D01*
X40000Y29607D01*
Y26437D01*
G01X62500Y43563D02*
X43057D01*
X41457Y41963D01*
Y36000D01*
G01X48543D02*
X66393D01*
X67893Y37500D01*
X71063D01*
G01X48543Y36000D02*
Y28037D01*
X50143Y26437D01*
X57500D01*
G01X55063Y71000D02*
X46218D01*
X41655Y66437D01*
X37500D01*
G01X62500Y60700D02*
X55482D01*
X53937Y59155D01*
Y52500D01*
G01X64661Y117500D02*
X42500Y95339D01*
Y79100D01*
X40900Y77500D01*
X31437D01*
G01X61500Y96200D02*
X56300D01*
X55000Y97500D01*
G01X60000Y105000D02*
Y102124D01*
X61500Y100624D01*
Y96200D01*
G01X31437Y92500D02*
Y88563D01*
X32500Y87500D01*
G01X47500D02*
X53000D01*
X54200Y88700D01*
X61500D01*
G01X65295Y137500D02*
X56600D01*
X55000Y135900D01*
Y119100D01*
X56600Y117500D01*
X64661D01*
G01X90000Y24543D02*
X87530D01*
X85930Y22943D01*
Y16601D01*
X84329Y15000D01*
X78543D01*
G01X90000Y17457D02*
X97850D01*
X97893Y17500D01*
X101063D01*
G01X70063Y26000D02*
Y19564D01*
X71457Y18170D01*
Y15000D01*
G01X90000Y24543D02*
X100495D01*
X104015Y28063D01*
X105000D01*
G01X90000Y48543D02*
Y57500D01*
X98937Y66437D01*
Y72500D01*
G01X70000Y46000D02*
Y50550D01*
X69500Y51050D01*
Y53200D01*
G01X70000Y46000D02*
Y42718D01*
X71063Y41655D01*
Y37500D01*
G01X77937Y26000D02*
Y32345D01*
X78937Y33345D01*
Y37500D01*
G01X97500Y42500D02*
X94213D01*
X93170Y41457D01*
X90000D01*
G01X62500Y51437D02*
Y60700D01*
G01D02*
X69500D01*
G01X79781Y72500D02*
Y60131D01*
X76650Y57000D01*
X76500D01*
G01X79781Y72500D02*
X78281Y71000D01*
X62937D01*
G01X91063Y72500D02*
X79781D01*
G01X91063D02*
Y76655D01*
X83937Y83781D01*
Y100000D01*
G01X76063D02*
Y106275D01*
X77288Y107500D01*
X103400D01*
X105000Y109100D01*
Y135000D01*
G01X68500Y92500D02*
X72718D01*
X76063Y95845D01*
Y100000D01*
G01X126150Y130000D02*
X112750Y116600D01*
X109100D01*
X107500Y115000D01*
Y101600D01*
X105900Y100000D01*
X83937D01*
G01X100000Y120000D02*
Y135900D01*
X98400Y137500D01*
X89705D01*
G01X78543Y117500D02*
X97500D01*
X100000Y120000D01*
G01X64661Y117500D02*
X71457D01*
G01X147500Y18445D02*
X151359D01*
X152500Y17304D01*
Y11600D01*
X150900Y10000D01*
X119100D01*
X117500Y11600D01*
Y15900D01*
X115900Y17500D01*
X108937D01*
G01X115000Y53957D02*
Y53661D01*
X105000Y43661D01*
Y35937D01*
G01Y53563D02*
X104015D01*
X97500Y47048D01*
Y42500D01*
G01X117500D02*
Y24100D01*
X119100Y22500D01*
X124784D01*
X125256Y22972D01*
G01X124626Y52972D02*
X119155D01*
X118170Y53957D01*
X115000D01*
G01X125000Y91437D02*
X124015D01*
X121225Y88647D01*
X116600D01*
X115000Y87047D01*
Y78543D01*
G01D02*
X136457D01*
X147500Y67500D01*
Y59100D01*
X145900Y57500D01*
X140374D01*
G01X98937Y72500D02*
Y80471D01*
X98563Y80845D01*
Y85000D01*
G01X115000Y61043D02*
X118170D01*
X119155Y62028D01*
X124626D01*
G01X115000Y71457D02*
Y61043D01*
G01X105000Y61437D02*
X111436D01*
X111830Y61043D01*
X115000D01*
G01X92500Y85000D02*
X98563D01*
G01X106437D02*
Y90899D01*
X108038Y92500D01*
X117499D01*
X122000Y97001D01*
Y104063D01*
G01X110000Y120000D02*
Y129600D01*
X111600Y131200D01*
X114000D01*
G01X105000Y135000D02*
X108700Y138700D01*
X114000D01*
G01X105000Y135000D02*
Y140000D01*
X110000Y145000D01*
G01X115000Y112500D02*
X117282D01*
X117845Y111937D01*
X122000D01*
G01X147500Y27500D02*
X151359D01*
X152500Y28641D01*
Y35000D01*
X150000Y37500D01*
Y76457D01*
G01X130000Y110000D02*
Y104782D01*
X133345Y101437D01*
X137500D01*
G01X150000D02*
Y108400D01*
X148400Y110000D01*
X144600D01*
X143000Y111600D01*
Y116500D01*
G01X137500Y93563D02*
X150000D01*
G01X125000Y83563D02*
X129155D01*
X129175Y83543D01*
X150000D01*
G01Y93563D02*
Y83543D01*
G01X121000Y135000D02*
X121150D01*
X126150Y130000D01*
G01D02*
X136200D01*
X136700Y129500D01*
X143000D01*
G01Y116500D02*
X124000D01*
X122000Y114500D01*
Y111937D01*
G54D15*
X17795Y137500D03*
X42205D03*
X65295D03*
X89705D03*
G54D16*
X40000Y18563D03*
X57500D03*
X40000Y26437D03*
X57500D03*
X62500Y43563D03*
Y51437D03*
X37500Y66437D03*
Y58563D03*
X105000Y28063D03*
Y35937D03*
Y61437D03*
Y53563D03*
X122000Y104063D03*
Y111937D03*
X125000Y91437D03*
Y83563D03*
X137500Y101437D03*
Y93563D03*
X150000D03*
Y101437D03*
G54D17*
X60000Y105000D03*
X70000Y46000D03*
X110000Y145000D03*
G54D18*
X90000Y17457D03*
Y24543D03*
Y48543D03*
Y41457D03*
X115000Y61043D03*
Y53957D03*
Y78543D03*
Y71457D03*
X150000Y76457D03*
Y83543D03*
G54D19*
X69500Y53200D03*
Y60700D03*
X76500Y57000D03*
X61500Y88700D03*
Y96200D03*
X68500Y92500D03*
X114000Y131200D03*
Y138700D03*
X121000Y135000D03*
M02*
